<svg width="500" height="500" viewBox="0 0 500 500" fill="none" xmlns="http://www.w3.org/2000/svg">
<rect width="500" height="500" fill="url(#paint0_linear_260_2)"/>
<path d="M249.988 400H392.643L358.519 365.86C356.904 364.257 355.987 362.082 355.965 359.807C355.943 357.532 356.819 355.34 358.402 353.707C372.586 338.951 383.579 321.432 390.697 302.242C397.814 283.051 400.904 262.6 399.772 242.163C397.549 205.46 382.047 170.821 356.159 144.71C330.271 118.6 295.767 102.804 259.087 100.27C256.014 100.09 252.951 100 249.898 100C210.131 100.014 171.999 115.825 143.888 143.955C115.777 172.085 99.9903 210.23 100 250C100.044 289.769 115.86 327.896 143.979 356.017C172.098 384.138 210.222 399.956 249.988 400Z" fill="white"/>
<path d="M292.292 286.975C300.954 277.075 306.241 264.175 306.241 250C306.241 218.987 281.005 193.75 249.995 193.75C218.985 193.75 193.75 218.987 193.75 250C193.75 281.013 218.985 306.25 249.995 306.25C264.169 306.25 277.068 300.963 286.967 292.3L299.829 305.162C300.579 305.875 301.516 306.25 302.491 306.25C303.466 306.25 304.403 305.875 305.153 305.162C306.616 303.7 306.616 301.337 305.153 299.875L292.292 286.975ZM201.249 250C201.249 223.112 223.11 201.25 249.995 201.25C276.881 201.25 298.741 223.112 298.741 250C298.741 276.887 276.881 298.75 249.995 298.75C223.11 298.75 201.249 276.887 201.249 250ZM227.497 238.75C227.497 234.625 230.872 231.25 234.997 231.25C239.121 231.25 242.496 234.625 242.496 238.75C242.496 242.875 239.121 246.25 234.997 246.25C230.872 246.25 227.497 242.875 227.497 238.75ZM272.493 238.75C272.493 242.875 269.119 246.25 264.994 246.25C260.869 246.25 257.495 242.875 257.495 238.75C257.495 234.625 260.869 231.25 264.994 231.25C269.119 231.25 272.493 234.625 272.493 238.75ZM270.619 263.463C271.444 265.338 270.619 267.588 268.706 268.412C268.219 268.637 267.694 268.75 267.206 268.75C265.782 268.75 264.394 267.925 263.757 266.5C261.357 261.025 255.92 257.5 249.995 257.5C244.071 257.5 238.634 261.025 236.196 266.537C235.372 268.412 233.159 269.312 231.247 268.45C229.372 267.625 228.51 265.412 229.335 263.5C232.972 255.288 241.109 250 249.995 250C258.882 250 267.019 255.287 270.619 263.463Z" fill="url(#paint1_linear_260_2)"/>
<defs>
<linearGradient id="paint0_linear_260_2" x1="500" y1="0" x2="0" y2="500" gradientUnits="userSpaceOnUse">
<stop/>
<stop offset="1" stop-color="#565656"/>
</linearGradient>
<linearGradient id="paint1_linear_260_2" x1="306.241" y1="193.75" x2="193.741" y2="306.241" gradientUnits="userSpaceOnUse">
<stop/>
<stop offset="1" stop-color="#4F4E4E"/>
</linearGradient>
</defs>
</svg>
