<svg width="300" height="300" viewBox="0 0 300 300" fill="none" xmlns="http://www.w3.org/2000/svg">
<path d="M149.988 300H292.643L258.519 265.86C256.904 264.257 255.987 262.082 255.965 259.807C255.943 257.532 256.819 255.34 258.402 253.707C272.586 238.951 283.579 221.432 290.697 202.242C297.814 183.051 300.904 162.6 299.772 142.163C297.549 105.46 282.047 70.8207 256.159 44.7104C230.271 18.6001 195.767 2.80374 159.087 0.27C156.014 0.0899995 152.951 0 149.898 0C110.131 0.0141427 71.9986 15.8251 43.8878 43.9551C15.777 72.085 -0.00972112 110.23 4.49102e-06 150C0.0441151 189.769 15.8605 227.896 43.9791 256.017C72.0977 284.138 110.222 299.956 149.988 300Z" fill="white"/>
<path d="M192.292 186.975C200.954 177.075 206.241 164.175 206.241 150C206.241 118.987 181.005 93.75 149.995 93.75C118.985 93.75 93.75 118.987 93.75 150C93.75 181.013 118.985 206.25 149.995 206.25C164.169 206.25 177.068 200.963 186.967 192.3L199.829 205.162C200.579 205.875 201.516 206.25 202.491 206.25C203.466 206.25 204.403 205.875 205.153 205.162C206.616 203.7 206.616 201.337 205.153 199.875L192.292 186.975ZM101.249 150C101.249 123.112 123.11 101.25 149.995 101.25C176.881 101.25 198.741 123.112 198.741 150C198.741 176.887 176.881 198.75 149.995 198.75C123.11 198.75 101.249 176.887 101.249 150ZM127.497 138.75C127.497 134.625 130.872 131.25 134.997 131.25C139.121 131.25 142.496 134.625 142.496 138.75C142.496 142.875 139.121 146.25 134.997 146.25C130.872 146.25 127.497 142.875 127.497 138.75ZM172.493 138.75C172.493 142.875 169.119 146.25 164.994 146.25C160.869 146.25 157.495 142.875 157.495 138.75C157.495 134.625 160.869 131.25 164.994 131.25C169.119 131.25 172.493 134.625 172.493 138.75ZM170.619 163.463C171.444 165.338 170.619 167.588 168.706 168.412C168.219 168.637 167.694 168.75 167.206 168.75C165.782 168.75 164.394 167.925 163.757 166.5C161.357 161.025 155.92 157.5 149.995 157.5C144.071 157.5 138.634 161.025 136.196 166.537C135.372 168.412 133.159 169.312 131.247 168.45C129.372 167.625 128.51 165.412 129.335 163.5C132.972 155.288 141.109 150 149.995 150C158.882 150 167.019 155.287 170.619 163.463Z" fill="url(#paint0_linear_304_2)"/>
<defs>
<linearGradient id="paint0_linear_304_2" x1="206.241" y1="93.75" x2="93.7406" y2="206.241" gradientUnits="userSpaceOnUse">
<stop/>
<stop offset="1" stop-color="#4F4E4E"/>
</linearGradient>
</defs>
</svg>
